<?xml version="1.0" encoding="utf-8"?>
<!-- Generator: Adobe Illustrator 19.0.0, SVG Export Plug-In . SVG Version: 6.00 Build 0)  -->
<svg version="1.1" id="Layer_1" xmlns="http://www.w3.org/2000/svg" xmlns:xlink="http://www.w3.org/1999/xlink" x="0px" y="0px"
	 viewBox="0 0 231 207" style="enable-background:new 0 0 231 207;" xml:space="preserve">
<style type="text/css">
	.st0{fill:#FFFFFF;}
	.st1{fill:#00AEEF;}
	.st2{font-family:'Helvetica'; font-weight: 700;}
	.st3{font-size:60px;}
</style>
<g id="XMLID_1_">
	<polygon id="XMLID_19_" class="st0" points="163.5,185.6 67.7,186.3 19.2,103.8 66.5,20.5 162.2,19.7 210.7,102.3 	"/>
	<g id="XMLID_14_">
		<path id="XMLID_18_" class="st1" d="M163.5,178.1c-27.9,0.2-55.8,0.4-83.7,0.6c-4,0-8.1,0.1-12.1,0.1c2.2,1.2,4.3,2.5,6.5,3.7
			c-14.1-24-28.3-48.1-42.4-72.1c-2-3.5-4.1-6.9-6.1-10.4c0,2.5,0,5,0,7.6C39.5,83.3,53.2,59,67,34.8c2-3.5,4-7,6-10.5
			c-2.2,1.2-4.3,2.5-6.5,3.7c27.9-0.2,55.8-0.4,83.7-0.6c4,0,8.1-0.1,12.1-0.1c-2.2-1.2-4.3-2.5-6.5-3.7
			c14.1,24,28.3,48.1,42.4,72.1c2,3.5,4.1,6.9,6.1,10.4c0-2.5,0-5,0-7.6c-13.8,24.3-27.5,48.5-41.3,72.8c-2,3.5-4,7-6,10.5
			c-4.8,8.4,8.2,16,13,7.6c14-24.6,28-49.3,41.9-73.9c1.7-3.1,3.8-6.1,5.3-9.3c2.4-5.2-0.8-9-3.3-13.2c-8.3-14.2-16.6-28.3-25-42.5
			c-6.7-11.5-13.5-22.9-20.2-34.4c-1.3-2.3-3.8-3.7-6.5-3.7c-28.3,0.2-56.7,0.4-85,0.7c-3.5,0-7.2-0.2-10.7,0.1
			c-5.6,0.4-7.4,5.2-9.7,9.4C48.7,36.7,40.6,51,32.5,65.3C25.9,76.8,19.3,88.4,12.8,100c-1.3,2.3-1.4,5.2,0,7.6
			c14.1,24,28.3,48.1,42.4,72.1c2,3.5,4.1,6.9,6.1,10.4c1.3,2.3,3.8,3.7,6.5,3.7c27.9-0.2,55.8-0.4,83.7-0.6c4,0,8.1-0.1,12.1-0.1
			C173.1,193,173.2,178,163.5,178.1z"/>
	</g>
</g>
<text id="XMLID_2_" transform="matrix(0.9082 0 0 1 51 122.5514)" class="st1 st2 st3">SSPI</text>
</svg>
